<?xml version="1.0" encoding="utf-8"?>
<!-- Generator: Adobe Illustrator 16.0.0, SVG Export Plug-In . SVG Version: 6.00 Build 0)  -->
<!DOCTYPE svg PUBLIC "-//W3C//DTD SVG 1.1//EN" "http://www.w3.org/Graphics/SVG/1.1/DTD/svg11.dtd">
<svg version="1.1" id="Layer_1" xmlns="http://www.w3.org/2000/svg" xmlns:xlink="http://www.w3.org/1999/xlink" x="0px" y="0px"
	 width="1000px" height="293.924px" viewBox="0 0 1000 293.924" enable-background="new 0 0 1000 293.924" xml:space="preserve">
<g>
	<path fill-rule="evenodd" clip-rule="evenodd" fill="#757575" d="M556.766,25.673h70.264c71.555,0,116.471,47.491,116.471,114.13
		c0,66.936-44.933,114.125-116.471,114.125h-70.264V25.673L556.766,25.673z M628.25,219.347c49.805,0,80.669-27.647,80.669-79.544
		c0-51.603-30.864-79.546-80.669-79.546h-36.903v159.09H628.25L628.25,219.347z"/>
	<path fill-rule="evenodd" clip-rule="evenodd" fill="#757575" d="M998.231,129.446H888.77v33.889h77.176
		c-2.55,17.297-8.54,30.773-17.519,39.779c-11.437,11.437-29.303,24.013-60.645,24.013c-48.34,0-86.139-38.965-86.139-87.305
		c0-48.337,37.799-87.302,86.139-87.302c26.063,0,45.122,10.259,59.174,23.44l23.145-23.145
		c-19.634-18.761-45.692-33.113-82.324-33.113c-66.2,0-121.864,53.896-121.864,120.12c0,66.2,55.664,120.117,121.864,120.117
		c35.731,0,62.69-11.708,83.795-33.691C993.251,204.579,1000,174.1,1000,149.49C1000,141.867,999.403,135.297,998.231,129.446
		L998.231,129.446L998.231,129.446z"/>
	<path fill-rule="evenodd" clip-rule="evenodd" fill="#757575" d="M527.897,129.446H418.436v33.889h77.178
		c-2.55,17.297-8.545,30.773-17.521,39.779c-11.437,11.437-29.303,24.013-60.645,24.013c-48.34,0-86.136-38.965-86.136-87.305
		c0-48.337,37.796-87.302,86.136-87.302c26.063,0,45.12,10.259,59.174,23.44l23.147-23.145
		c-19.637-18.761-45.698-33.113-82.324-33.113c-66.203,0-121.867,53.896-121.867,120.12c0,66.2,55.664,120.117,121.867,120.117
		c35.729,0,62.687-11.708,83.792-33.691c21.68-21.669,28.429-52.148,28.429-76.758C529.666,141.867,529.069,135.297,527.897,129.446
		L527.897,129.446L527.897,129.446z"/>
	<polygon fill-rule="evenodd" clip-rule="evenodd" fill="#FFC107" points="135.829,234.842 111.418,192.622 52.816,293.924 
		102.992,293.924 136.494,235.991 135.829,234.842 	"/>
	<polygon fill-rule="evenodd" clip-rule="evenodd" fill="#0F9D58" points="85.01,146.962 111.418,192.622 52.816,293.924 0,293.924 
		85.01,146.962 	"/>
	<polygon fill-rule="evenodd" clip-rule="evenodd" fill="#4285F4" points="52.813,0 0,0 136.494,235.991 162.88,190.364 
		162.901,190.311 52.813,0 	"/>
	<path fill-rule="evenodd" clip-rule="evenodd" fill="#DB4437" d="M180.01,160.742c2.428-4.188,3.706-8.94,3.706-13.78
		c0-4.834-1.277-9.592-3.703-13.772L102.989,0H52.813l110.088,190.321L180.01,160.742L180.01,160.742z"/>
</g>
</svg>
